<svg xmlns="http://www.w3.org/2000/svg" xmlns:xlink="http://www.w3.org/1999/xlink" width="500" zoomAndPan="magnify" viewBox="0 0 375 374.999991" height="500" preserveAspectRatio="xMidYMid meet" version="1.0"><defs><clipPath id="a45278949e"><path d="M 187.5 0 C 83.945312 0 0 83.945312 0 187.5 C 0 291.054688 83.945312 375 187.5 375 C 291.054688 375 375 291.054688 375 187.5 C 375 83.945312 291.054688 0 187.5 0 " clip-rule="nonzero"/></clipPath><clipPath id="3bbd31e0bb"><path d="M 275 87.25 L 287.5 87.25 L 287.5 101 L 275 101 Z M 275 87.25 " clip-rule="nonzero"/></clipPath><clipPath id="b859b0ac25"><path d="M 275 100 L 287.5 100 L 287.5 276 L 275 276 Z M 275 100 " clip-rule="nonzero"/></clipPath><clipPath id="8a19a48bca"><path d="M 99 87.25 L 276 87.25 L 276 101 L 99 101 Z M 99 87.25 " clip-rule="nonzero"/></clipPath><clipPath id="87ffbc1f99"><path d="M 87.25 87.25 L 100 87.25 L 100 101 L 87.25 101 Z M 87.25 87.25 " clip-rule="nonzero"/></clipPath><clipPath id="78fa00de6c"><path d="M 87.25 100 L 100 100 L 100 276 L 87.25 276 Z M 87.25 100 " clip-rule="nonzero"/></clipPath><clipPath id="b3b448f163"><path d="M 99 275 L 276 275 L 276 287.5 L 99 287.5 Z M 99 275 " clip-rule="nonzero"/></clipPath><clipPath id="0314c7c498"><path d="M 87.25 275 L 100 275 L 100 287.5 L 87.25 287.5 Z M 87.25 275 " clip-rule="nonzero"/></clipPath><clipPath id="36f1857ccd"><path d="M 275 275 L 287.5 275 L 287.5 287.5 L 275 287.5 Z M 275 275 " clip-rule="nonzero"/></clipPath><clipPath id="157cc9ec86"><path d="M 61 60.882812 L 314.382812 60.882812 L 314.382812 314.382812 L 61 314.382812 Z M 61 60.882812 " clip-rule="nonzero"/></clipPath></defs><g clip-path="url(#a45278949e)"><rect x="-37.5" width="450" fill="#8f8f8f" y="-37.499999" height="449.999989" fill-opacity="1"/></g><g clip-path="url(#3bbd31e0bb)"><path fill="#ffffff" d="M 279.488281 87.25 L 275.082031 87.25 L 275.082031 100.464844 L 287.5 100.464844 L 287.5 95.257812 C 287.5 90.851562 283.894531 87.25 279.488281 87.25 Z M 279.488281 87.25 " fill-opacity="1" fill-rule="nonzero"/></g><g clip-path="url(#b859b0ac25)"><path fill="#ffffff" d="M 275.082031 100.464844 L 287.5 100.464844 L 287.5 275.882812 L 275.082031 275.882812 Z M 275.082031 100.464844 " fill-opacity="1" fill-rule="nonzero"/></g><path fill="#ffffff" d="M 99.664062 100.464844 L 275.082031 100.464844 L 275.082031 275.882812 L 99.664062 275.882812 Z M 99.664062 100.464844 " fill-opacity="1" fill-rule="nonzero"/><g clip-path="url(#8a19a48bca)"><path fill="#ffffff" d="M 99.664062 87.25 L 275.082031 87.25 L 275.082031 100.464844 L 99.664062 100.464844 Z M 99.664062 87.25 " fill-opacity="1" fill-rule="nonzero"/></g><g clip-path="url(#87ffbc1f99)"><path fill="#ffffff" d="M 95.257812 87.25 C 90.851562 87.25 87.25 90.851562 87.25 95.257812 L 87.25 100.464844 L 99.664062 100.464844 L 99.664062 87.25 Z M 95.257812 87.25 " fill-opacity="1" fill-rule="nonzero"/></g><g clip-path="url(#78fa00de6c)"><path fill="#ffffff" d="M 87.25 100.464844 L 99.664062 100.464844 L 99.664062 275.882812 L 87.25 275.882812 Z M 87.25 100.464844 " fill-opacity="1" fill-rule="nonzero"/></g><g clip-path="url(#b3b448f163)"><path fill="#ffffff" d="M 99.664062 275.882812 L 275.082031 275.882812 L 275.082031 287.5 L 99.664062 287.5 Z M 99.664062 275.882812 " fill-opacity="1" fill-rule="nonzero"/></g><g clip-path="url(#0314c7c498)"><path fill="#ffffff" d="M 87.25 275.882812 L 87.25 279.488281 C 87.25 283.894531 90.851562 287.5 95.257812 287.5 L 99.664062 287.5 L 99.664062 275.882812 Z M 87.25 275.882812 " fill-opacity="1" fill-rule="nonzero"/></g><g clip-path="url(#36f1857ccd)"><path fill="#ffffff" d="M 279.488281 287.5 C 283.894531 287.5 287.5 283.894531 287.5 279.488281 L 287.5 275.882812 L 275.082031 275.882812 L 275.082031 287.5 Z M 279.488281 287.5 " fill-opacity="1" fill-rule="nonzero"/></g><g clip-path="url(#157cc9ec86)"><path fill="#0277b5" d="M 293.203125 60.882812 L 82.1875 60.882812 C 70.519531 60.882812 61.136719 70.394531 61.136719 81.933594 L 61.136719 293.332031 C 61.136719 304.996094 70.644531 314.382812 82.1875 314.382812 L 293.078125 314.382812 C 304.742188 314.382812 314.128906 304.871094 314.128906 293.332031 L 314.128906 81.933594 C 314.253906 70.394531 304.871094 60.882812 293.203125 60.882812 Z M 136.082031 269.996094 L 98.671875 269.996094 L 98.671875 157.640625 L 136.082031 157.640625 Z M 117.3125 144.070312 C 105.519531 144.070312 96.007812 134.558594 96.007812 122.765625 C 96.007812 110.972656 105.519531 101.460938 117.3125 101.460938 C 129.105469 101.460938 138.617188 110.972656 138.617188 122.765625 C 138.617188 134.558594 129.105469 144.070312 117.3125 144.070312 Z M 276.84375 269.996094 L 239.308594 269.996094 L 238.421875 203.292969 C 238.421875 203.292969 239.308594 185.539062 219.90625 185.667969 C 200.503906 185.792969 197.839844 203.292969 197.839844 203.292969 L 197.839844 269.996094 L 160.050781 269.996094 L 160.050781 157.640625 L 196.320312 157.640625 L 196.320312 173.113281 C 196.320312 173.113281 197.839844 168.039062 206.210938 162.078125 C 214.578125 156.117188 228.402344 154.851562 234.363281 155.105469 C 240.324219 155.359375 248.4375 154.34375 262.007812 163.726562 C 276.589844 173.746094 276.972656 199.996094 276.972656 199.996094 Z M 276.84375 269.996094 " fill-opacity="1" fill-rule="nonzero"/></g></svg>