<svg xmlns="http://www.w3.org/2000/svg" xmlns:xlink="http://www.w3.org/1999/xlink" width="500" zoomAndPan="magnify" viewBox="0 0 375 374.999991" height="500" preserveAspectRatio="xMidYMid meet" version="1.0"><defs><clipPath id="b8dbd92e57"><path d="M 53.089844 0 L 321.910156 0 L 321.910156 71.804688 L 53.089844 71.804688 Z M 53.089844 0 " clip-rule="nonzero"/></clipPath><clipPath id="d95c164fa5"><path d="M 53.089844 48.476562 L 155.582031 48.476562 L 155.582031 374.992188 L 53.089844 374.992188 Z M 53.089844 48.476562 " clip-rule="nonzero"/></clipPath><clipPath id="f151ad7a0d"><path d="M 53.089844 303.195312 L 321.910156 303.195312 L 321.910156 375 L 53.089844 375 Z M 53.089844 303.195312 " clip-rule="nonzero"/></clipPath><clipPath id="e0689b058b"><path d="M 77.773438 151.597656 L 264.21875 151.597656 L 264.21875 223.402344 L 77.773438 223.402344 Z M 77.773438 151.597656 " clip-rule="nonzero"/></clipPath><clipPath id="33ec8b40f8"><path d="M 65.105469 10.707031 L 309.894531 10.707031 L 309.894531 54.945312 L 65.105469 54.945312 Z M 65.105469 10.707031 " clip-rule="nonzero"/></clipPath><clipPath id="dbad633882"><path d="M 65.109375 32.820312 L 141.839844 32.820312 L 141.839844 359.339844 L 65.109375 359.339844 Z M 65.109375 32.820312 " clip-rule="nonzero"/></clipPath><clipPath id="9c2a360486"><path d="M 65.105469 316.964844 L 309.894531 316.964844 L 309.894531 364.292969 L 65.105469 364.292969 Z M 65.105469 316.964844 " clip-rule="nonzero"/></clipPath><clipPath id="3a21431845"><path d="M 65.105469 162.289062 L 246.976562 162.289062 L 246.976562 209.621094 L 65.105469 209.621094 Z M 65.105469 162.289062 " clip-rule="nonzero"/></clipPath></defs><g clip-path="url(#b8dbd92e57)"><path fill="#029494" d="M 53.089844 0 L 322.1875 0 L 322.1875 72.402344 L 53.089844 72.402344 Z M 53.089844 0 " fill-opacity="1" fill-rule="nonzero"/></g><g clip-path="url(#d95c164fa5)"><path fill="#029494" d="M 53.089844 374.992188 L 53.089844 47.96875 L 155.664062 47.96875 L 155.664062 374.992188 Z M 53.089844 374.992188 " fill-opacity="1" fill-rule="nonzero"/></g><g clip-path="url(#f151ad7a0d)"><path fill="#029494" d="M 53.089844 303.195312 L 322.1875 303.195312 L 322.1875 375.597656 L 53.089844 375.597656 Z M 53.089844 303.195312 " fill-opacity="1" fill-rule="nonzero"/></g><g clip-path="url(#e0689b058b)"><path fill="#029494" d="M 77.773438 151.597656 L 264.816406 151.597656 L 264.816406 224 L 77.773438 224 Z M 77.773438 151.597656 " fill-opacity="1" fill-rule="nonzero"/></g><g clip-path="url(#33ec8b40f8)"><path fill="#12423e" d="M 65.105469 10.707031 L 310.074219 10.707031 L 310.074219 55.355469 L 65.105469 55.355469 Z M 65.105469 10.707031 " fill-opacity="1" fill-rule="nonzero"/></g><g clip-path="url(#dbad633882)"><path fill="#12423e" d="M 65.109375 359.339844 L 65.109375 32.3125 L 142.339844 32.3125 L 142.339844 359.339844 Z M 65.109375 359.339844 " fill-opacity="1" fill-rule="nonzero"/></g><g clip-path="url(#9c2a360486)"><path fill="#12423e" d="M 65.105469 316.964844 L 310.074219 316.964844 L 310.074219 364.027344 L 65.105469 364.027344 Z M 65.105469 316.964844 " fill-opacity="1" fill-rule="nonzero"/></g><g clip-path="url(#3a21431845)"><path fill="#12423e" d="M 65.105469 162.289062 L 247.324219 162.289062 L 247.324219 209.351562 L 65.105469 209.351562 Z M 65.105469 162.289062 " fill-opacity="1" fill-rule="nonzero"/></g><path stroke-linecap="butt" transform="matrix(1.407547, 0.00413853, -0.00413219, 1.40539, 80.416024, 332.070564)" fill="none" stroke-linejoin="miter" d="M -0.000590681 5.000101 L 152.777996 5.000481 " stroke="#029494" stroke-width="10" stroke-opacity="1" stroke-miterlimit="4"/><path stroke-linecap="butt" transform="matrix(1.404963, 0.000000000000000131, -0.000000000000000131, 1.405397, 80.374701, 24.808784)" fill="none" stroke-linejoin="miter" d="M 0.000212944 5.000121 L 152.061575 5.000121 " stroke="#029494" stroke-width="10" stroke-opacity="1" stroke-miterlimit="4"/><path stroke-linecap="butt" transform="matrix(0.000000000000000086, 1.407195, -1.405397, 0.000000000000000086, 95.14861, 31.83637)" fill="none" stroke-linejoin="miter" d="M -0.000307285 5.00038 L 219.718644 5.00038 " stroke="#029494" stroke-width="10" stroke-opacity="1" stroke-miterlimit="4"/><path stroke-linecap="butt" transform="matrix(0.000000000000001644, 1.40353, -1.405397, 0.000000000000001646, 122.262287, 55.005095)" fill="none" stroke-linejoin="miter" d="M -0.00084682 5.000661 L 188.249368 5.000661 " stroke="#029494" stroke-width="10" stroke-opacity="1" stroke-miterlimit="4"/><path stroke-linecap="butt" transform="matrix(1.402123, 0.000000000000001828, -0.000000000000001832, 1.405397, 115.235423, 178.755295)" fill="none" stroke-linejoin="miter" d="M -0.000747675 4.999269 L 87.210756 4.999269 " stroke="#029494" stroke-width="10" stroke-opacity="1" stroke-miterlimit="4"/></svg>