<svg xmlns="http://www.w3.org/2000/svg" xmlns:xlink="http://www.w3.org/1999/xlink" width="500" zoomAndPan="magnify" viewBox="0 0 375 374.999991" height="500" preserveAspectRatio="xMidYMid meet" version="1.0"><defs><g/></defs><g fill="#029494" fill-opacity="1"><g transform="translate(0.0219549, 277.296572)"><g><path d="M 129.6875 -19.203125 L 129.5625 0 L 22.25 0 L 22.25 -174.171875 L 129.5625 -174.171875 L 129.5625 -154.96875 L 45.828125 -154.96875 L 45.828125 -97.109375 L 113.640625 -97.109375 L 113.640625 -78.640625 L 45.828125 -78.640625 L 45.828125 -19.203125 Z M 129.6875 -19.203125 "/></g></g></g><g fill="#029494" fill-opacity="1"><g transform="translate(140.399751, 277.296572)"><g><path d="M 111.34375 -146.953125 C 110.613281 -145.734375 109.820312 -144.816406 108.96875 -144.203125 C 108.113281 -143.597656 107.082031 -143.296875 105.875 -143.296875 C 104.488281 -143.296875 102.863281 -143.984375 101 -145.359375 C 99.132812 -146.742188 96.804688 -148.265625 94.015625 -149.921875 C 91.222656 -151.585938 87.859375 -153.109375 83.921875 -154.484375 C 79.992188 -155.859375 75.234375 -156.546875 69.640625 -156.546875 C 64.378906 -156.546875 59.742188 -155.835938 55.734375 -154.421875 C 51.722656 -153.003906 48.359375 -151.078125 45.640625 -148.640625 C 42.921875 -146.210938 40.875 -143.359375 39.5 -140.078125 C 38.125 -136.796875 37.4375 -133.253906 37.4375 -129.453125 C 37.4375 -124.585938 38.628906 -120.550781 41.015625 -117.34375 C 43.410156 -114.144531 46.570312 -111.410156 50.5 -109.140625 C 54.425781 -106.878906 58.878906 -104.914062 63.859375 -103.25 C 68.847656 -101.59375 73.957031 -99.875 79.1875 -98.09375 C 84.414062 -96.3125 89.519531 -94.304688 94.5 -92.078125 C 99.488281 -89.847656 103.945312 -87.03125 107.875 -83.625 C 111.800781 -80.21875 114.957031 -76.039062 117.34375 -71.09375 C 119.738281 -66.15625 120.9375 -60.082031 120.9375 -52.875 C 120.9375 -45.257812 119.640625 -38.109375 117.046875 -31.421875 C 114.453125 -24.734375 110.660156 -18.914062 105.671875 -13.96875 C 100.691406 -9.03125 94.578125 -5.144531 87.328125 -2.3125 C 80.078125 0.519531 71.832031 1.9375 62.59375 1.9375 C 51.25 1.9375 40.957031 -0.101562 31.71875 -4.1875 C 22.488281 -8.28125 14.585938 -13.8125 8.015625 -20.78125 L 14.828125 -31.96875 C 15.472656 -32.851562 16.257812 -33.597656 17.1875 -34.203125 C 18.125 -34.816406 19.160156 -35.125 20.296875 -35.125 C 21.347656 -35.125 22.539062 -34.695312 23.875 -33.84375 C 25.21875 -33 26.738281 -31.925781 28.4375 -30.625 C 30.144531 -29.332031 32.09375 -27.914062 34.28125 -26.375 C 36.46875 -24.832031 38.957031 -23.410156 41.75 -22.109375 C 44.539062 -20.816406 47.71875 -19.742188 51.28125 -18.890625 C 54.851562 -18.046875 58.867188 -17.625 63.328125 -17.625 C 68.921875 -17.625 73.90625 -18.394531 78.28125 -19.9375 C 82.65625 -21.476562 86.359375 -23.644531 89.390625 -26.4375 C 92.429688 -29.226562 94.757812 -32.566406 96.375 -36.453125 C 98 -40.347656 98.8125 -44.6875 98.8125 -49.46875 C 98.8125 -54.738281 97.613281 -59.050781 95.21875 -62.40625 C 92.832031 -65.769531 89.695312 -68.585938 85.8125 -70.859375 C 81.925781 -73.128906 77.46875 -75.050781 72.4375 -76.625 C 67.414062 -78.207031 62.3125 -79.828125 57.125 -81.484375 C 51.9375 -83.148438 46.832031 -85.078125 41.8125 -87.265625 C 36.789062 -89.453125 32.332031 -92.285156 28.4375 -95.765625 C 24.550781 -99.253906 21.410156 -103.613281 19.015625 -108.84375 C 16.628906 -114.070312 15.4375 -120.535156 15.4375 -128.234375 C 15.4375 -134.390625 16.628906 -140.34375 19.015625 -146.09375 C 21.410156 -151.851562 24.894531 -156.957031 29.46875 -161.40625 C 34.050781 -165.863281 39.679688 -169.429688 46.359375 -172.109375 C 53.046875 -174.785156 60.726562 -176.125 69.40625 -176.125 C 79.125 -176.125 87.972656 -174.582031 95.953125 -171.5 C 103.941406 -168.425781 110.972656 -163.96875 117.046875 -158.125 Z M 111.34375 -146.953125 "/></g></g></g><g fill="#029494" fill-opacity="1"><g transform="translate(272.269789, 277.296572)"><g><path d="M 82.28125 -60.171875 C 82.28125 -50.441406 81.082031 -41.726562 78.6875 -34.03125 C 76.300781 -26.332031 72.78125 -19.828125 68.125 -14.515625 C 63.46875 -9.210938 57.734375 -5.144531 50.921875 -2.3125 C 44.117188 0.519531 36.300781 1.9375 27.46875 1.9375 C 19.445312 1.9375 11.265625 0.804688 2.921875 -1.453125 C 3.078125 -3.804688 3.273438 -6.132812 3.515625 -8.4375 C 3.765625 -10.75 3.96875 -13.039062 4.125 -15.3125 C 4.289062 -16.6875 4.796875 -17.800781 5.640625 -18.65625 C 6.492188 -19.507812 7.816406 -19.9375 9.609375 -19.9375 C 11.066406 -19.9375 12.988281 -19.570312 15.375 -18.84375 C 17.769531 -18.113281 20.988281 -17.75 25.03125 -17.75 C 30.382812 -17.75 35.164062 -18.554688 39.375 -20.171875 C 43.59375 -21.796875 47.117188 -24.304688 49.953125 -27.703125 C 52.785156 -31.109375 54.953125 -35.460938 56.453125 -40.765625 C 57.953125 -46.078125 58.703125 -52.378906 58.703125 -59.671875 L 58.703125 -174.171875 L 82.28125 -174.171875 Z M 82.28125 -60.171875 "/></g></g></g></svg>